<mxfile host="Electron" agent="Mozilla/5.0 (Macintosh; Intel Mac OS X 10_15_7) AppleWebKit/537.36 (KHTML, like Gecko) draw.io/26.2.15 Chrome/134.0.6998.205 Electron/35.2.1 Safari/537.36" version="26.2.15">
  <diagram name="Page-1" id="tqNoCmG_KPZSjwTlXW9H">
    <mxGraphModel dx="1026" dy="668" grid="1" gridSize="10" guides="1" tooltips="1" connect="1" arrows="1" fold="1" page="1" pageScale="1" pageWidth="735" pageHeight="325" math="1" shadow="0">
      <root>
        <mxCell id="0" />
        <mxCell id="1" parent="0" />
        <mxCell id="zQ8wl6sbCmHXJeYkt5yo-1" value="" style="shape=ext;double=1;rounded=1;whiteSpace=wrap;html=1;" parent="1" vertex="1">
          <mxGeometry x="390.5" y="90" width="340" height="180" as="geometry" />
        </mxCell>
        <mxCell id="zQ8wl6sbCmHXJeYkt5yo-77" value="" style="shape=ext;double=1;rounded=1;whiteSpace=wrap;html=1;fillColor=#fad9d5;strokeColor=#ae4132;" parent="1" vertex="1">
          <mxGeometry x="395" y="105.75" width="129" height="114.25" as="geometry" />
        </mxCell>
        <mxCell id="zQ8wl6sbCmHXJeYkt5yo-72" value="" style="rounded=1;whiteSpace=wrap;html=1;fillColor=#fad7ac;strokeColor=#b46504;" parent="1" vertex="1">
          <mxGeometry x="399" y="153" width="120" height="46" as="geometry" />
        </mxCell>
        <mxCell id="zQ8wl6sbCmHXJeYkt5yo-2" value="`G_{\Sigma}`" style="shape=ext;double=1;rounded=1;whiteSpace=wrap;html=1;fillColor=#fad9d5;strokeColor=#ae4132;" parent="1" vertex="1">
          <mxGeometry x="565" y="150" width="40" height="40" as="geometry" />
        </mxCell>
        <mxCell id="zQ8wl6sbCmHXJeYkt5yo-5" value="`\Delta W = W_0 \odot (A G_{\Sigma} B)`" style="text;whiteSpace=wrap;" parent="1" vertex="1">
          <mxGeometry x="554" y="230" width="142" height="30" as="geometry" />
        </mxCell>
        <mxCell id="zQ8wl6sbCmHXJeYkt5yo-6" value="&lt;div style=&quot;text-align: left;&quot;&gt;&lt;i style=&quot;vertical-align: super; background-color: transparent; color: light-dark(rgb(255, 255, 255), rgb(18, 18, 18));&quot;&gt;&lt;br&gt;&lt;/i&gt;&lt;/div&gt;&lt;div style=&quot;text-align: left;&quot;&gt;&lt;i style=&quot;vertical-align: super; background-color: transparent; color: light-dark(rgb(255, 255, 255), rgb(18, 18, 18));&quot;&gt;`\mathbf{W}_0 \in \mathbb{R}^{n \times m}`&amp;nbsp;&lt;/i&gt;&lt;/div&gt;" style="shape=ext;double=1;rounded=1;whiteSpace=wrap;html=1;fillColor=#1ba1e2;fontColor=#ffffff;strokeColor=#006EAF;" parent="1" vertex="1">
          <mxGeometry x="646" y="131" width="80" height="80" as="geometry" />
        </mxCell>
        <mxCell id="zQ8wl6sbCmHXJeYkt5yo-9" value="&lt;font style=&quot;font-size: 16px;&quot;&gt;`odot`&lt;/font&gt;" style="text;html=1;align=center;verticalAlign=middle;resizable=0;points=[];autosize=1;strokeColor=none;fillColor=none;" parent="1" vertex="1">
          <mxGeometry x="590" y="155" width="70" height="30" as="geometry" />
        </mxCell>
        <mxCell id="zQ8wl6sbCmHXJeYkt5yo-11" value="" style="shape=ext;double=1;rounded=1;whiteSpace=wrap;html=1;" parent="1" vertex="1">
          <mxGeometry x="5" y="66" width="370" height="174" as="geometry" />
        </mxCell>
        <mxCell id="zQ8wl6sbCmHXJeYkt5yo-12" value="" style="shape=ext;double=1;rounded=1;whiteSpace=wrap;html=1;" parent="1" vertex="1">
          <mxGeometry x="5" y="10" width="130" height="50" as="geometry" />
        </mxCell>
        <mxCell id="zQ8wl6sbCmHXJeYkt5yo-14" value="" style="rounded=1;whiteSpace=wrap;html=1;fillColor=#1ba1e2;fontColor=#ffffff;strokeColor=#006EAF;arcSize=7;" parent="1" vertex="1">
          <mxGeometry x="290" y="100" width="80" height="80" as="geometry" />
        </mxCell>
        <mxCell id="zQ8wl6sbCmHXJeYkt5yo-15" value="" style="rounded=1;whiteSpace=wrap;html=1;fillColor=#1ba1e2;fontColor=#ffffff;strokeColor=#006EAF;arcSize=7;" parent="1" vertex="1">
          <mxGeometry x="120" y="100" width="80" height="80" as="geometry" />
        </mxCell>
        <mxCell id="zQ8wl6sbCmHXJeYkt5yo-16" value="&lt;div&gt;&lt;br&gt;&lt;/div&gt;Pre-trained&lt;div&gt;Weights&lt;/div&gt;&lt;div style=&quot;text-align: left;&quot;&gt;&lt;i style=&quot;vertical-align: super; background-color: transparent; color: light-dark(rgb(255, 255, 255), rgb(18, 18, 18));&quot;&gt;`\mathbf{W}_0 \in \mathbb{R}^{n \times m}`&amp;nbsp;&lt;/i&gt;&lt;/div&gt;" style="shape=ext;double=1;rounded=1;whiteSpace=wrap;html=1;fillColor=#1ba1e2;fontColor=#ffffff;strokeColor=#006EAF;" parent="1" vertex="1">
          <mxGeometry x="10" y="100" width="80" height="80" as="geometry" />
        </mxCell>
        <mxCell id="zQ8wl6sbCmHXJeYkt5yo-17" value="&lt;font style=&quot;font-size: 16px;&quot;&gt;â‰ˆ&lt;/font&gt;" style="text;html=1;align=center;verticalAlign=middle;whiteSpace=wrap;rounded=0;" parent="1" vertex="1">
          <mxGeometry x="90" y="125" width="30" height="30" as="geometry" />
        </mxCell>
        <mxCell id="zQ8wl6sbCmHXJeYkt5yo-18" value="Learnable" style="rounded=1;whiteSpace=wrap;html=1;fillColor=#f0a30a;fontColor=#000000;strokeColor=#BD7000;" parent="1" vertex="1">
          <mxGeometry x="70" y="16.25" width="60" height="15" as="geometry" />
        </mxCell>
        <mxCell id="zQ8wl6sbCmHXJeYkt5yo-19" value="&lt;div style=&quot;&quot;&gt;&lt;i style=&quot;text-align: left; background-color: transparent; vertical-align: super;&quot;&gt;&lt;font style=&quot;color: rgb(0, 0, 0);&quot;&gt;`\mathbf{U} \in \mathbb{R}^{n \times k}`&amp;nbsp;&lt;/font&gt;&lt;/i&gt;&lt;/div&gt;" style="text;html=1;align=center;verticalAlign=middle;whiteSpace=wrap;rounded=0;" parent="1" vertex="1">
          <mxGeometry x="120" y="70" width="80" height="30" as="geometry" />
        </mxCell>
        <mxCell id="zQ8wl6sbCmHXJeYkt5yo-21" value="Frozen" style="rounded=1;whiteSpace=wrap;html=1;fillColor=#1ba1e2;fontColor=#ffffff;strokeColor=#006EAF;" parent="1" vertex="1">
          <mxGeometry x="10" y="16.25" width="50" height="15" as="geometry" />
        </mxCell>
        <mxCell id="zQ8wl6sbCmHXJeYkt5yo-22" value="Masked" style="rounded=1;whiteSpace=wrap;html=1;fillColor=#b0e3e6;strokeColor=#0e8088;" parent="1" vertex="1">
          <mxGeometry x="10" y="38.75" width="50" height="15" as="geometry" />
        </mxCell>
        <mxCell id="zQ8wl6sbCmHXJeYkt5yo-23" value="Truncation" style="rounded=1;whiteSpace=wrap;html=1;dashed=1;fillColor=#f5f5f5;strokeColor=#666666;fontColor=#333333;" parent="1" vertex="1">
          <mxGeometry x="70" y="38.75" width="60" height="15" as="geometry" />
        </mxCell>
        <mxCell id="zQ8wl6sbCmHXJeYkt5yo-24" value="" style="rounded=1;whiteSpace=wrap;html=1;fillColor=#ffe6cc;strokeColor=#d79b00;arcSize=50;" parent="1" vertex="1">
          <mxGeometry x="124" y="110" width="10" height="60" as="geometry" />
        </mxCell>
        <mxCell id="zQ8wl6sbCmHXJeYkt5yo-25" value="" style="rounded=1;whiteSpace=wrap;html=1;fillColor=#e1d5e7;strokeColor=#9673a6;arcSize=50;" parent="1" vertex="1">
          <mxGeometry x="137" y="110" width="10" height="60" as="geometry" />
        </mxCell>
        <mxCell id="zQ8wl6sbCmHXJeYkt5yo-26" value="" style="rounded=1;whiteSpace=wrap;html=1;fillColor=#f8cecc;strokeColor=#b85450;arcSize=50;" parent="1" vertex="1">
          <mxGeometry x="150" y="110" width="10" height="60" as="geometry" />
        </mxCell>
        <mxCell id="zQ8wl6sbCmHXJeYkt5yo-27" value="" style="rounded=1;whiteSpace=wrap;html=1;dashed=1;fillColor=#f5f5f5;strokeColor=#666666;fontColor=#333333;" parent="1" vertex="1">
          <mxGeometry x="163" y="110" width="34" height="60" as="geometry" />
        </mxCell>
        <mxCell id="zQ8wl6sbCmHXJeYkt5yo-28" value="" style="rounded=1;whiteSpace=wrap;html=1;fillColor=#e1d5e7;strokeColor=#9673a6;direction=south;arcSize=50;" parent="1" vertex="1">
          <mxGeometry x="300" y="118" width="60" height="10" as="geometry" />
        </mxCell>
        <mxCell id="zQ8wl6sbCmHXJeYkt5yo-29" value="" style="rounded=1;whiteSpace=wrap;html=1;fillColor=#ffe6cc;strokeColor=#d79b00;arcSize=50;direction=south;" parent="1" vertex="1">
          <mxGeometry x="300" y="104" width="60" height="10" as="geometry" />
        </mxCell>
        <mxCell id="zQ8wl6sbCmHXJeYkt5yo-30" value="" style="rounded=1;whiteSpace=wrap;html=1;fillColor=#f8cecc;strokeColor=#b85450;arcSize=50;direction=south;" parent="1" vertex="1">
          <mxGeometry x="300" y="131" width="60" height="10" as="geometry" />
        </mxCell>
        <mxCell id="zQ8wl6sbCmHXJeYkt5yo-31" value="" style="rounded=1;whiteSpace=wrap;html=1;dashed=1;fillColor=#f5f5f5;strokeColor=#666666;fontColor=#333333;direction=south;" parent="1" vertex="1">
          <mxGeometry x="300" y="144" width="60" height="34" as="geometry" />
        </mxCell>
        <mxCell id="zQ8wl6sbCmHXJeYkt5yo-32" value="&lt;i style=&quot;background-color: transparent; vertical-align: super;&quot;&gt;&lt;font style=&quot;color: rgb(0, 0, 0);&quot;&gt;`\mathbf{V}^\top \in \mathbb{R}^{k \times m}`&amp;nbsp;&lt;/font&gt;&lt;/i&gt;" style="text;whiteSpace=wrap;html=1;" parent="1" vertex="1">
          <mxGeometry x="290" y="70" width="80" height="30" as="geometry" />
        </mxCell>
        <mxCell id="zQ8wl6sbCmHXJeYkt5yo-33" value="" style="strokeWidth=2;html=1;shape=mxgraph.flowchart.annotation_2;align=left;labelPosition=right;pointerEvents=1;direction=north;" parent="1" vertex="1">
          <mxGeometry x="124" y="180" width="35" height="15" as="geometry" />
        </mxCell>
        <mxCell id="zQ8wl6sbCmHXJeYkt5yo-35" value="`k = m - r`" style="text;html=1;align=center;verticalAlign=middle;whiteSpace=wrap;rounded=0;" parent="1" vertex="1">
          <mxGeometry x="112" y="190" width="60" height="30" as="geometry" />
        </mxCell>
        <mxCell id="zQ8wl6sbCmHXJeYkt5yo-36" value="" style="rounded=1;whiteSpace=wrap;html=1;fillColor=#1ba1e2;fontColor=#ffffff;strokeColor=#006EAF;arcSize=7;" parent="1" vertex="1">
          <mxGeometry x="205" y="100" width="80" height="80" as="geometry" />
        </mxCell>
        <mxCell id="zQ8wl6sbCmHXJeYkt5yo-37" value="&lt;i style=&quot;background-color: transparent; text-align: left; vertical-align: super; color: rgb(0, 0, 0);&quot;&gt;&lt;font style=&quot;color: rgb(0, 0, 0);&quot;&gt;`B \in \mathbb{R}^{k \times m}`&amp;nbsp;&lt;/font&gt;&lt;/i&gt;" style="shape=trapezoid;perimeter=trapezoidPerimeter;whiteSpace=wrap;html=1;fixedSize=1;fillColor=#f0a30a;fontColor=#000000;strokeColor=#BD7000;" parent="1" vertex="1">
          <mxGeometry x="526" y="194" width="120" height="30" as="geometry" />
        </mxCell>
        <mxCell id="zQ8wl6sbCmHXJeYkt5yo-38" value="&lt;i style=&quot;text-align: left; background-color: transparent; vertical-align: super; color: rgb(0, 0, 0);&quot;&gt;&lt;font style=&quot;color: rgb(0, 0, 0);&quot;&gt;`A \in \mathbb{R}^{n \times k}`&amp;nbsp;&lt;/font&gt;&lt;/i&gt;" style="shape=trapezoid;perimeter=trapezoidPerimeter;whiteSpace=wrap;html=1;fixedSize=1;fillColor=#f0a30a;fontColor=#000000;strokeColor=#BD7000;direction=west;" parent="1" vertex="1">
          <mxGeometry x="526" y="116" width="120" height="30" as="geometry" />
        </mxCell>
        <mxCell id="zQ8wl6sbCmHXJeYkt5yo-39" value="`\sigma(`&amp;nbsp; &amp;nbsp; &amp;nbsp; &amp;nbsp; &amp;nbsp; &amp;nbsp; &amp;nbsp; `\cdots`&amp;nbsp; &amp;nbsp; &amp;nbsp; `)`" style="rounded=1;whiteSpace=wrap;html=1;fillColor=#ffff88;strokeColor=#36393d;dashed=1;align=left;" parent="1" vertex="1">
          <mxGeometry x="403" y="116" width="112" height="20" as="geometry" />
        </mxCell>
        <mxCell id="zQ8wl6sbCmHXJeYkt5yo-41" value="" style="rounded=1;whiteSpace=wrap;html=1;fillColor=#fff2cc;strokeColor=#d6b656;" parent="1" vertex="1">
          <mxGeometry x="208" y="104" width="10" height="10" as="geometry" />
        </mxCell>
        <mxCell id="zQ8wl6sbCmHXJeYkt5yo-43" value="" style="rounded=1;whiteSpace=wrap;html=1;fillColor=#e1d5e7;strokeColor=#9673a6;" parent="1" vertex="1">
          <mxGeometry x="220" y="116" width="10" height="10" as="geometry" />
        </mxCell>
        <mxCell id="zQ8wl6sbCmHXJeYkt5yo-44" value="" style="rounded=1;whiteSpace=wrap;html=1;fillColor=#f8cecc;strokeColor=#b85450;" parent="1" vertex="1">
          <mxGeometry x="232" y="128" width="10" height="10" as="geometry" />
        </mxCell>
        <mxCell id="zQ8wl6sbCmHXJeYkt5yo-45" value="" style="rounded=1;whiteSpace=wrap;html=1;fillColor=#b0e3e6;strokeColor=#0e8088;" parent="1" vertex="1">
          <mxGeometry x="208" y="128" width="10" height="10" as="geometry" />
        </mxCell>
        <mxCell id="zQ8wl6sbCmHXJeYkt5yo-46" value="" style="rounded=1;whiteSpace=wrap;html=1;fillColor=#b0e3e6;strokeColor=#0e8088;" parent="1" vertex="1">
          <mxGeometry x="220" y="128" width="10" height="10" as="geometry" />
        </mxCell>
        <mxCell id="zQ8wl6sbCmHXJeYkt5yo-47" value="" style="rounded=1;whiteSpace=wrap;html=1;fillColor=#b0e3e6;strokeColor=#0e8088;" parent="1" vertex="1">
          <mxGeometry x="208" y="116" width="10" height="10" as="geometry" />
        </mxCell>
        <mxCell id="zQ8wl6sbCmHXJeYkt5yo-48" value="" style="rounded=1;whiteSpace=wrap;html=1;fillColor=#b0e3e6;strokeColor=#0e8088;arcSize=19;" parent="1" vertex="1">
          <mxGeometry x="232" y="116" width="10" height="10" as="geometry" />
        </mxCell>
        <mxCell id="zQ8wl6sbCmHXJeYkt5yo-49" value="" style="rounded=1;whiteSpace=wrap;html=1;fillColor=#b0e3e6;strokeColor=#0e8088;arcSize=19;" parent="1" vertex="1">
          <mxGeometry x="220" y="104" width="10" height="10" as="geometry" />
        </mxCell>
        <mxCell id="zQ8wl6sbCmHXJeYkt5yo-50" value="" style="rounded=1;whiteSpace=wrap;html=1;fillColor=#b0e3e6;strokeColor=#0e8088;arcSize=19;" parent="1" vertex="1">
          <mxGeometry x="232" y="104" width="10" height="10" as="geometry" />
        </mxCell>
        <mxCell id="zQ8wl6sbCmHXJeYkt5yo-51" value="" style="rounded=1;whiteSpace=wrap;html=1;dashed=1;fillColor=#f5f5f5;strokeColor=#666666;fontColor=#333333;" parent="1" vertex="1">
          <mxGeometry x="208" y="140" width="34" height="38" as="geometry" />
        </mxCell>
        <mxCell id="zQ8wl6sbCmHXJeYkt5yo-52" value="" style="rounded=1;whiteSpace=wrap;html=1;dashed=1;fillColor=#f5f5f5;strokeColor=#666666;fontColor=#333333;" parent="1" vertex="1">
          <mxGeometry x="245" y="140" width="38" height="38" as="geometry" />
        </mxCell>
        <mxCell id="zQ8wl6sbCmHXJeYkt5yo-53" value="" style="rounded=1;whiteSpace=wrap;html=1;dashed=1;fillColor=#f5f5f5;strokeColor=#666666;fontColor=#333333;direction=south;" parent="1" vertex="1">
          <mxGeometry x="245" y="104" width="38" height="34" as="geometry" />
        </mxCell>
        <mxCell id="zQ8wl6sbCmHXJeYkt5yo-54" value="" style="rounded=1;whiteSpace=wrap;html=1;fillColor=#60a917;strokeColor=#2D7600;fontColor=#ffffff;" parent="1" vertex="1">
          <mxGeometry x="419" y="121" width="10" height="10" as="geometry" />
        </mxCell>
        <mxCell id="zQ8wl6sbCmHXJeYkt5yo-55" value="" style="rounded=1;whiteSpace=wrap;html=1;fillColor=#6a00ff;strokeColor=#3700CC;fontColor=#ffffff;" parent="1" vertex="1">
          <mxGeometry x="435" y="121" width="10" height="10" as="geometry" />
        </mxCell>
        <mxCell id="zQ8wl6sbCmHXJeYkt5yo-56" value="" style="rounded=1;whiteSpace=wrap;html=1;fillColor=#a20025;strokeColor=#6F0000;fontColor=#ffffff;" parent="1" vertex="1">
          <mxGeometry x="450" y="121" width="10" height="10" as="geometry" />
        </mxCell>
        <mxCell id="zQ8wl6sbCmHXJeYkt5yo-57" value="" style="rounded=1;whiteSpace=wrap;html=1;fillColor=#6d8764;strokeColor=#3A5431;fontColor=#ffffff;" parent="1" vertex="1">
          <mxGeometry x="485" y="121" width="10" height="10" as="geometry" />
        </mxCell>
        <mxCell id="zQ8wl6sbCmHXJeYkt5yo-59" value="&lt;div&gt;&lt;span style=&quot;background-color: transparent; color: light-dark(rgb(0, 0, 0), rgb(255, 255, 255));&quot;&gt;`W_{\text{world}} = U[:m-r] \Sigma[:m-r] V[:m-r]^\top`&lt;/span&gt;&lt;/div&gt;" style="text;html=1;align=center;verticalAlign=middle;whiteSpace=wrap;rounded=0;" parent="1" vertex="1">
          <mxGeometry x="50" y="210" width="300" height="30" as="geometry" />
        </mxCell>
        <mxCell id="zQ8wl6sbCmHXJeYkt5yo-61" value="`+`" style="text;html=1;align=center;verticalAlign=middle;resizable=0;points=[];autosize=1;strokeColor=none;fillColor=none;fontSize=16;" parent="1" vertex="1">
          <mxGeometry x="363" y="138" width="40" height="30" as="geometry" />
        </mxCell>
        <mxCell id="zQ8wl6sbCmHXJeYkt5yo-65" style="edgeStyle=orthogonalEdgeStyle;rounded=0;orthogonalLoop=1;jettySize=auto;html=1;exitX=0.5;exitY=0;exitDx=0;exitDy=0;entryX=0.5;entryY=0;entryDx=0;entryDy=0;" parent="1" source="zQ8wl6sbCmHXJeYkt5yo-62" target="zQ8wl6sbCmHXJeYkt5yo-39" edge="1">
          <mxGeometry relative="1" as="geometry" />
        </mxCell>
        <mxCell id="zQ8wl6sbCmHXJeYkt5yo-62" value="&lt;i style=&quot;background-color: transparent; text-align: left; vertical-align: super;&quot;&gt;&lt;font style=&quot;color: rgb(0, 0, 0);&quot;&gt;`\mathbf{\Sigma} \in \mathbb{R}^{k \times k}`&amp;nbsp;&lt;/font&gt;&lt;/i&gt;" style="rounded=1;whiteSpace=wrap;html=1;fillColor=#ffff88;strokeColor=#36393d;dashed=1;" parent="1" vertex="1">
          <mxGeometry x="207" y="70" width="75" height="29" as="geometry" />
        </mxCell>
        <mxCell id="zQ8wl6sbCmHXJeYkt5yo-66" value="`g(`&amp;nbsp; &amp;nbsp; &amp;nbsp; &amp;nbsp; &amp;nbsp; &amp;nbsp; &amp;nbsp; `\cdots`&amp;nbsp; &amp;nbsp; &amp;nbsp; `)`" style="rounded=1;whiteSpace=wrap;html=1;fillColor=#f0a30a;strokeColor=#BD7000;dashed=1;align=left;fontColor=#000000;" parent="1" vertex="1">
          <mxGeometry x="403" y="174" width="112" height="20" as="geometry" />
        </mxCell>
        <mxCell id="zQ8wl6sbCmHXJeYkt5yo-67" value="" style="rounded=1;whiteSpace=wrap;html=1;fillColor=#60a917;strokeColor=#2D7600;fontColor=#ffffff;" parent="1" vertex="1">
          <mxGeometry x="419" y="179" width="10" height="10" as="geometry" />
        </mxCell>
        <mxCell id="zQ8wl6sbCmHXJeYkt5yo-68" value="" style="rounded=1;whiteSpace=wrap;html=1;fillColor=#6a00ff;strokeColor=#3700CC;fontColor=#ffffff;" parent="1" vertex="1">
          <mxGeometry x="435" y="179" width="10" height="10" as="geometry" />
        </mxCell>
        <mxCell id="zQ8wl6sbCmHXJeYkt5yo-69" value="" style="rounded=1;whiteSpace=wrap;html=1;fillColor=#a20025;strokeColor=#6F0000;fontColor=#ffffff;" parent="1" vertex="1">
          <mxGeometry x="450" y="179" width="10" height="10" as="geometry" />
        </mxCell>
        <mxCell id="zQ8wl6sbCmHXJeYkt5yo-70" value="" style="rounded=1;whiteSpace=wrap;html=1;fillColor=#6d8764;strokeColor=#3A5431;fontColor=#ffffff;" parent="1" vertex="1">
          <mxGeometry x="485" y="179" width="10" height="10" as="geometry" />
        </mxCell>
        <mxCell id="zQ8wl6sbCmHXJeYkt5yo-71" value="&lt;b&gt;normalization&lt;/b&gt;" style="text;html=1;align=center;verticalAlign=middle;resizable=0;points=[];autosize=1;strokeColor=none;fillColor=none;" parent="1" vertex="1">
          <mxGeometry x="303" y="23.75" width="100" height="30" as="geometry" />
        </mxCell>
        <mxCell id="zQ8wl6sbCmHXJeYkt5yo-74" value="&lt;b&gt;sigmoid&lt;/b&gt;" style="text;html=1;align=center;verticalAlign=middle;resizable=0;points=[];autosize=1;strokeColor=none;fillColor=none;" parent="1" vertex="1">
          <mxGeometry x="424" y="149" width="70" height="30" as="geometry" />
        </mxCell>
        <mxCell id="zQ8wl6sbCmHXJeYkt5yo-75" value="&lt;font style=&quot;font-size: 16px;&quot;&gt;`odot`&lt;/font&gt;" style="text;html=1;align=center;verticalAlign=middle;resizable=0;points=[];autosize=1;strokeColor=none;fillColor=none;" parent="1" vertex="1">
          <mxGeometry x="424" y="129" width="70" height="30" as="geometry" />
        </mxCell>
        <mxCell id="zQ8wl6sbCmHXJeYkt5yo-80" value="" style="endArrow=classic;html=1;rounded=0;entryX=0;entryY=0.5;entryDx=0;entryDy=0;" parent="1" edge="1">
          <mxGeometry width="50" height="50" relative="1" as="geometry">
            <mxPoint x="527" y="170" as="sourcePoint" />
            <mxPoint x="562" y="170" as="targetPoint" />
          </mxGeometry>
        </mxCell>
        <mxCell id="zQ8wl6sbCmHXJeYkt5yo-82" value="&lt;b&gt;High-rank representation&amp;nbsp;&lt;/b&gt;&lt;div&gt;&lt;b&gt;with Knowledge alignment&lt;/b&gt;&lt;/div&gt;" style="text;html=1;align=center;verticalAlign=middle;resizable=0;points=[];autosize=1;strokeColor=none;fillColor=none;" parent="1" vertex="1">
          <mxGeometry x="290" y="280" width="170" height="40" as="geometry" />
        </mxCell>
        <mxCell id="zQ8wl6sbCmHXJeYkt5yo-83" value="Adaptive knowledge gating" style="text;html=1;align=center;verticalAlign=middle;whiteSpace=wrap;rounded=0;fontStyle=1" parent="1" vertex="1">
          <mxGeometry x="405" y="224" width="110" height="30" as="geometry" />
        </mxCell>
        <mxCell id="zQ8wl6sbCmHXJeYkt5yo-84" value="&lt;b&gt;diag&lt;/b&gt;" style="text;html=1;align=center;verticalAlign=middle;whiteSpace=wrap;rounded=0;" parent="1" vertex="1">
          <mxGeometry x="429.5" y="195" width="60" height="25" as="geometry" />
        </mxCell>
      </root>
    </mxGraphModel>
  </diagram>
</mxfile>
